<svg width="55" height="86" viewBox="0 0 55 86" fill="none" xmlns="http://www.w3.org/2000/svg">
    <g filter="url(#filter0_d_14_174)">
    <path d="M48.1543 37.1056C48.1543 37.1056 47.0149 40.2728 45.2369 44.8235C44.6619 46.3017 44.018 47.9244 43.3238 49.6324C42.3566 52.0107 41.2914 54.5549 40.1759 57.0991C39.4896 58.665 38.7848 60.2284 38.072 61.7564C34.2405 69.9456 30.1599 77.0405 27.4863 77.14C21.4794 77.3627 8.61224 41.4312 7.20787 37.461C7.12571 37.2288 7.08334 37.1056 7.08334 37.1056H48.1543Z" fill="#DDBEA9"/>
    <path opacity="0.1" d="M45.2368 44.8235C44.6619 46.3017 44.018 47.9244 43.3237 49.6324L27.412 37.1056H35.4328L45.2368 44.8235Z" fill="black"/>
    <path opacity="0.1" d="M40.1759 57.0991C39.4896 58.665 38.7848 60.2284 38.072 61.7564L7.20787 37.461C7.12571 37.2288 7.08334 37.1056 7.08334 37.1056H14.7782L40.1759 57.0991Z" fill="black"/>
    <path d="M28.331 5.28209C26.4482 6.61544 23.471 6.11126 21.6615 7.52342C20.4238 8.48936 20.0936 10.1411 20.4313 11.5786C20.7691 13.0161 21.6665 14.2916 22.5694 15.5187C23.1925 16.3657 23.839 17.2193 24.7145 17.8634C25.9387 18.764 27.5097 19.1832 29.0497 19.5199C32.4032 20.253 35.8277 20.6968 39.276 20.8452C40.8138 20.9113 42.5554 20.8452 43.5914 19.8272C44.1948 19.2343 44.4374 18.4219 44.6142 17.6362C44.8908 16.4071 45.0445 15.0838 44.473 13.939C44.0032 12.9979 43.0991 12.2926 42.1837 11.6664C39.3124 9.70212 35.9306 8.07595 34.1782 5.24875C33.4816 4.12498 33.0521 2.82275 31.9963 1.95085C30.6201 0.814387 27.5581 0.349689 25.9378 1.10886C26.1881 1.61909 29.4597 4.48278 28.331 5.28209Z" fill="#DEAAFF"/>
    <path d="M12.5093 18.5342C11.9511 20.2648 11.4368 22.096 11.9069 23.8474C12.5266 26.1566 14.7913 27.886 17.2756 28.7266C19.7599 29.5672 22.4691 29.6654 25.1235 29.754L39.0215 30.2181C40.7681 30.2764 42.5483 30.3404 44.1898 30.8772C45.5427 31.3196 47.1507 32.0481 48.2786 31.2469C48.7902 30.8835 49.02 30.2952 49.2015 29.734C49.7922 27.9082 50.1227 25.9032 49.3283 24.1401C48.418 22.1198 46.1733 20.7923 43.8427 20.1577C41.5121 19.5231 39.0439 19.4613 36.6224 19.2217C34.166 18.9785 31.7372 18.5487 29.3625 17.9369C27.3771 17.4254 25.3657 16.7504 23.8972 15.451C23.1028 14.7482 22.5013 13.891 21.7526 13.1492C17.4636 8.89978 13.5642 15.2639 12.5093 18.5342Z" fill="#DEAAFF"/>
    <path d="M9.45538 26.485C8.10361 27.0263 6.9311 27.8705 6.05141 28.9358C5.17173 30.0012 4.61468 31.2516 4.43421 32.5659C4.25373 33.8802 4.45596 35.2139 5.0213 36.4379C5.58665 37.6618 6.49594 38.7345 7.66113 39.552C9.77732 41.0368 12.5467 41.5531 15.2298 41.726C17.8498 41.8948 20.4811 41.7787 23.1047 41.6625L46.3176 40.6346C47.6783 40.5744 49.2183 40.4344 50.0489 39.469C50.6688 38.7485 50.7052 37.7547 50.5572 36.8554C50.0248 33.6204 47.2925 30.7564 43.8032 29.7759C42.4873 29.4061 41.1018 29.2891 39.7284 29.1743L29.7776 28.3419C28.4376 28.2298 27.0897 28.1165 25.791 27.8008C21.8559 26.8446 18.3398 24.0526 14.2882 24.466C11.5396 24.7464 9.27655 26.4667 7.27994 28.1786" fill="#DEAAFF"/>
    <path opacity="0.1" d="M22.4518 12.4691C22.4518 12.4691 25.6996 17.7114 42.3589 19.8281Z" fill="black"/>
    <path opacity="0.1" d="M13.2367 26.1995C13.2367 26.1995 19.2721 31.6572 44.1796 31.6572Z" fill="black"/>
    <path d="M27.2213 9.86333C28.0994 9.86333 28.8111 9.65121 28.8111 9.38955C28.8111 9.12789 28.0994 8.91577 27.2213 8.91577C26.3433 8.91577 25.6315 9.12789 25.6315 9.38955C25.6315 9.65121 26.3433 9.86333 27.2213 9.86333Z" fill="#7D1AAB"/>
    <path d="M32.5208 12.9429C33.3988 12.9429 34.1106 12.7307 34.1106 12.4691C34.1106 12.2074 33.3988 11.9953 32.5208 11.9953C31.6427 11.9953 30.9309 12.2074 30.9309 12.4691C30.9309 12.7307 31.6427 12.9429 32.5208 12.9429Z" fill="#7D1AAB"/>
    <path d="M38.6152 16.2593C39.4932 16.2593 40.205 16.0472 40.205 15.7855C40.205 15.5239 39.4932 15.3118 38.6152 15.3118C37.7371 15.3118 37.0253 15.5239 37.0253 15.7855C37.0253 16.0472 37.7371 16.2593 38.6152 16.2593Z" fill="#7D1AAB"/>
    <path d="M17.4172 17.6807C18.2953 17.6807 19.0071 17.4686 19.0071 17.2069C19.0071 16.9452 18.2953 16.7331 17.4172 16.7331C16.5392 16.7331 15.8274 16.9452 15.8274 17.2069C15.8274 17.4686 16.5392 17.6807 17.4172 17.6807Z" fill="#7D1AAB"/>
    <path d="M30.9309 22.1816C31.8089 22.1816 32.5207 21.9695 32.5207 21.7078C32.5207 21.4462 31.8089 21.234 30.9309 21.234C30.0529 21.234 29.3411 21.4462 29.3411 21.7078C29.3411 21.9695 30.0529 22.1816 30.9309 22.1816Z" fill="#7D1AAB"/>
    <path d="M11.8528 31.4203C12.7309 31.4203 13.4426 31.2082 13.4426 30.9465C13.4426 30.6848 12.7309 30.4727 11.8528 30.4727C10.9748 30.4727 10.263 30.6848 10.263 30.9465C10.263 31.2082 10.9748 31.4203 11.8528 31.4203Z" fill="#7D1AAB"/>
    <path d="M21.9218 22.6554C22.7999 22.6554 23.5117 22.4433 23.5117 22.1816C23.5117 21.9199 22.7999 21.7078 21.9218 21.7078C21.0438 21.7078 20.332 21.9199 20.332 22.1816C20.332 22.4433 21.0438 22.6554 21.9218 22.6554Z" fill="#7D1AAB"/>
    <path d="M15.8274 34.9736C16.7055 34.9736 17.4173 34.7615 17.4173 34.4999C17.4173 34.2382 16.7055 34.0261 15.8274 34.0261C14.9494 34.0261 14.2376 34.2382 14.2376 34.4999C14.2376 34.7615 14.9494 34.9736 15.8274 34.9736Z" fill="#7D1AAB"/>
    <path d="M26.1614 32.8416C27.0394 32.8416 27.7512 32.6295 27.7512 32.3678C27.7512 32.1062 27.0394 31.8941 26.1614 31.8941C25.2833 31.8941 24.5715 32.1062 24.5715 32.3678C24.5715 32.6295 25.2833 32.8416 26.1614 32.8416Z" fill="#7D1AAB"/>
    <path d="M32.3883 44.2123C33.3395 44.2123 34.1106 42.7805 34.1106 41.0143C34.1106 39.2481 33.3395 37.8163 32.3883 37.8163C31.4371 37.8163 30.666 39.2481 30.666 41.0143C30.666 42.7805 31.4371 44.2123 32.3883 44.2123Z" fill="#DEAAFF"/>
    <path d="M34.5081 45.3968C35.4593 45.3968 36.2304 43.965 36.2304 42.1988C36.2304 40.4326 35.4593 39.0008 34.5081 39.0008C33.5569 39.0008 32.7857 40.4326 32.7857 42.1988C32.7857 43.965 33.5569 45.3968 34.5081 45.3968Z" fill="#DEAAFF"/>
    </g>
    <defs>
    <filter id="filter0_d_14_174" x="0.370117" y="0.737183" width="54.2597" height="84.4038" filterUnits="userSpaceOnUse" color-interpolation-filters="sRGB">
    <feFlood flood-opacity="0" result="BackgroundImageFix"/>
    <feColorMatrix in="SourceAlpha" type="matrix" values="0 0 0 0 0 0 0 0 0 0 0 0 0 0 0 0 0 0 127 0" result="hardAlpha"/>
    <feOffset dy="4"/>
    <feGaussianBlur stdDeviation="2"/>
    <feComposite in2="hardAlpha" operator="out"/>
    <feColorMatrix type="matrix" values="0 0 0 0 0 0 0 0 0 0 0 0 0 0 0 0 0 0 0.25 0"/>
    <feBlend mode="normal" in2="BackgroundImageFix" result="effect1_dropShadow_14_174"/>
    <feBlend mode="normal" in="SourceGraphic" in2="effect1_dropShadow_14_174" result="shape"/>
    </filter>
    </defs>
    </svg>
    